# Blender 4.3.2
# www.blender.org
mtllib Container.mtl
o Cube_001_001
v -1.261635 0.375960 3.945203
v -1.261635 0.375960 2.135790
v -1.425554 1.433384 1.939237
v 0.247362 0.375960 3.945203
v 0.411281 1.433384 4.141756
v 0.247362 0.375960 2.135790
v -1.209746 0.431512 3.904954
v -1.301127 1.428808 4.012773
v -1.209746 0.431512 2.176039
v -1.301127 1.428808 2.068220
v 0.195473 0.431512 3.904954
v 0.286854 1.428808 4.012773
v 0.195473 0.431512 2.176039
v 0.286854 1.428808 2.068220
v -1.349699 1.307394 4.050798
v -1.349699 1.307394 2.030194
v 0.335426 1.307394 2.030194
v 0.335426 1.307394 4.050798
v -1.413210 1.302818 4.126953
v -1.425554 1.433384 4.141756
v 0.411281 1.433384 1.939237
v -1.413210 1.302818 1.954039
v 0.398937 1.302818 1.954039
v 0.398937 1.302818 4.126953
vn 0.0719 -0.9974 -0.0000
vn -0.0000 -0.9982 -0.0600
vn -0.0000 -0.9982 0.0600
vn -0.0000 -1.0000 -0.0000
vn 0.9958 0.0912 -0.0000
vn -0.0000 0.1075 0.9942
vn -0.9958 0.0912 -0.0000
vn -0.0000 0.1075 -0.9942
vn -0.0000 1.0000 -0.0000
vn 0.0368 0.9993 -0.0000
vn -0.0000 0.9994 0.0355
vn -0.0368 0.9993 -0.0000
vn -0.0000 0.9994 -0.0355
vn -0.0000 -0.1126 0.9936
vn 0.9956 -0.0941 -0.0000
vn -0.0000 -0.1126 -0.9936
vn -0.9956 -0.0941 -0.0000
vn -0.0719 -0.9974 -0.0000
vt 0.388130 0.109146
vt 0.003906 0.109146
vt 0.003906 0.094691
vt 0.388130 0.094691
vt 0.708561 0.086613
vt 0.388130 0.086613
vt 0.388130 0.072158
vt 0.708561 0.072158
vt 0.708561 0.109146
vt 0.708561 0.094691
vt 0.920993 0.990899
vt 0.781410 0.990899
vt 0.781410 0.823527
vt 0.920993 0.823527
vt 0.003906 0.500066
vt 0.361673 0.500066
vt 0.361673 0.696264
vt 0.003906 0.696264
vt 0.003906 0.996094
vt 0.003906 0.704342
vt 0.200265 0.704342
vt 0.200265 0.996094
vt 0.729220 0.696264
vt 0.371453 0.696264
vt 0.371453 0.500066
vt 0.729220 0.500066
vt 0.406253 0.704342
vt 0.406253 0.996094
vt 0.209894 0.996094
vt 0.209894 0.704342
vt 0.003906 0.454961
vt 0.003906 0.117224
vt 0.278410 0.117224
vt 0.278410 0.454961
vt 0.321428 0.038032
vt 0.705911 0.038032
vt 0.705911 0.064080
vt 0.321428 0.064080
vt 0.003906 0.038032
vt 0.003906 0.064080
vt 0.321428 0.003906
vt 0.705911 0.003906
vt 0.705911 0.029954
vt 0.321428 0.029954
vt 0.003906 0.003906
vt 0.003906 0.029954
vt 0.739001 0.436597
vt 0.922521 0.436597
vt 0.922521 0.747892
vt 0.739001 0.747892
vt 0.659543 0.308645
vt 0.659543 0.491988
vt 0.286635 0.491988
vt 0.286635 0.308645
vt 0.851839 0.428519
vt 0.668319 0.428519
vt 0.668319 0.117224
vt 0.851839 0.117224
vt 0.286635 0.300567
vt 0.286635 0.117224
vt 0.659543 0.117224
vt 0.659543 0.300567
vt 0.841894 0.789749
vt 0.841894 0.815449
vt 0.415882 0.815449
vt 0.415882 0.789749
vt 0.885895 0.359532
vt 0.860170 0.359532
vt 0.860170 0.003906
vt 0.885895 0.003906
vt 0.841894 0.755970
vt 0.841894 0.781671
vt 0.415882 0.781671
vt 0.415882 0.755970
vt 0.415882 0.849252
vt 0.415882 0.823527
vt 0.771508 0.823527
vt 0.771508 0.849252
vt 0.003906 0.086613
vt 0.003906 0.072158
s 0
usemtl Material.004
f 16/1/1 15/2/1 19/3/1 22/4/1
f 15/5/2 18/6/2 24/7/2 19/8/2
f 17/9/3 16/1/3 22/4/3 23/10/3
f 2/11/4 6/12/4 4/13/4 1/14/4
f 7/15/5 9/16/5 10/17/5 8/18/5
f 9/19/6 13/20/6 14/21/6 10/22/6
f 13/23/7 11/24/7 12/25/7 14/26/7
f 11/27/8 7/28/8 8/29/8 12/30/8
f 9/31/9 7/32/9 11/33/9 13/34/9
f 3/35/10 20/36/10 8/37/10 10/38/10
f 21/39/11 3/35/11 10/38/11 14/40/11
f 5/41/12 21/42/12 14/43/12 12/44/12
f 20/45/13 5/41/13 12/44/13 8/46/13
f 4/47/14 18/48/14 15/49/14 1/50/14
f 6/51/15 17/52/15 18/53/15 4/54/15
f 2/55/16 16/56/16 17/57/16 6/58/16
f 1/59/17 15/60/17 16/61/17 2/62/17
f 19/63/17 20/64/17 3/65/17 22/66/17
f 22/67/16 3/68/16 21/69/16 23/70/16
f 23/71/15 21/72/15 5/73/15 24/74/15
f 24/75/14 5/76/14 20/77/14 19/78/14
f 18/6/18 17/79/18 23/80/18 24/7/18
