# Blender 4.3.2
# www.blender.org
mtllib Nitki.mtl
o Circle_004
v -1.209537 -0.000000 -0.150505
v -1.209537 0.057596 -0.139048
v -1.209537 0.106423 -0.106423
v -1.209537 0.139048 -0.057596
v -1.209537 0.150505 0.000000
v -1.209537 0.139048 0.057596
v -1.209537 0.106423 0.106423
v -1.209537 0.057596 0.139048
v -1.209537 -0.000000 0.150505
v -1.209537 -0.057596 0.139048
v -1.209537 -0.106423 0.106423
v -1.209537 -0.139048 0.057596
v -1.209537 -0.150505 0.000000
v -1.209537 -0.139048 -0.057596
v -1.209537 -0.106423 -0.106423
v -1.209537 -0.057596 -0.139048
v -1.209537 0.000000 -0.290532
v -1.209537 0.075195 -0.280633
v -1.209537 0.145266 -0.251608
v -1.209537 0.205437 -0.205437
v -1.209537 0.251608 -0.145266
v -1.209537 0.280633 -0.075195
v -1.209537 0.290532 0.000000
v -1.209537 0.280633 0.075195
v -1.209537 0.251608 0.145266
v -1.209537 0.205437 0.205437
v -1.209537 0.145266 0.251608
v -1.209537 0.075195 0.280633
v -1.209537 0.000000 0.290532
v -1.209537 -0.075195 0.280633
v -1.209537 -0.145266 0.251608
v -1.209537 -0.205437 0.205437
v -1.209537 -0.251608 0.145266
v -1.209537 -0.280633 0.075195
v -1.209537 -0.290532 0.000000
v -1.209537 -0.280633 -0.075195
v -1.209537 -0.251608 -0.145266
v -1.209537 -0.205437 -0.205437
v -1.209537 -0.145266 -0.251608
v -1.209537 -0.075195 -0.280633
v -1.180780 0.000000 -0.290532
v -1.180780 0.075195 -0.280633
v -1.180780 0.145266 -0.251608
v -1.180780 0.205437 -0.205437
v -1.180780 0.251608 -0.145266
v -1.180780 0.280633 -0.075195
v -1.180780 0.290532 0.000000
v -1.180780 0.280633 0.075195
v -1.180780 0.251608 0.145266
v -1.180780 0.205437 0.205437
v -1.180780 0.145266 0.251608
v -1.180780 0.075195 0.280633
v -1.180780 0.000000 0.290532
v -1.180780 -0.075195 0.280633
v -1.180780 -0.145266 0.251608
v -1.180780 -0.205437 0.205437
v -1.180780 -0.251608 0.145266
v -1.180780 -0.280633 0.075195
v -1.180780 -0.290532 0.000000
v -1.180780 -0.280633 -0.075195
v -1.180780 -0.251608 -0.145266
v -1.180780 -0.205437 -0.205437
v -1.180780 -0.145266 -0.251608
v -1.180780 -0.075195 -0.280633
v -1.195159 0.284566 0.076249
v -1.195159 0.255135 0.147302
v -1.195159 -0.147302 -0.255135
v -1.195159 -0.076249 -0.284566
v -1.195159 0.000000 -0.294605
v -1.195159 0.076249 -0.284566
v -1.195159 -0.208317 0.208317
v -1.195159 -0.255135 0.147302
v -1.195159 0.208317 0.208317
v -1.195159 0.147302 -0.255135
v -1.195159 -0.284566 0.076249
v -1.195159 0.147302 0.255135
v -1.195159 0.208317 -0.208317
v -1.195159 -0.294604 0.000000
v -1.195159 0.076249 0.284566
v -1.195159 0.255135 -0.147302
v -1.195159 -0.284566 -0.076249
v -1.195159 0.000000 0.294605
v -1.195159 0.284566 -0.076249
v -1.195159 -0.255135 -0.147302
v -1.195159 -0.076249 0.284566
v -1.195159 0.294605 0.000000
v -1.195159 -0.208317 -0.208317
v -1.195159 -0.147302 0.255135
v -1.761495 -0.000000 -0.150505
v -1.761495 0.057596 -0.139048
v -1.761495 0.106423 -0.106423
v -1.761495 0.139048 -0.057596
v -1.761495 0.150505 0.000000
v -1.761495 0.139048 0.057596
v -1.761495 0.106423 0.106423
v -1.761495 0.057596 0.139048
v -1.761495 -0.000000 0.150505
v -1.761495 -0.057596 0.139048
v -1.761495 -0.106423 0.106423
v -1.761495 -0.139048 0.057596
v -1.761495 -0.150505 0.000000
v -1.761495 -0.139048 -0.057596
v -1.761495 -0.106423 -0.106423
v -1.761495 -0.057596 -0.139048
v -1.761495 0.000000 -0.290532
v -1.761495 0.075195 -0.280633
v -1.761495 0.145266 -0.251608
v -1.761495 0.205437 -0.205437
v -1.761495 0.251608 -0.145266
v -1.761495 0.280633 -0.075195
v -1.761495 0.290532 0.000000
v -1.761495 0.280633 0.075195
v -1.761495 0.251608 0.145266
v -1.761495 0.205437 0.205437
v -1.761495 0.145266 0.251608
v -1.761495 0.075195 0.280633
v -1.761495 0.000000 0.290532
v -1.761495 -0.075195 0.280633
v -1.761495 -0.145266 0.251608
v -1.761495 -0.205437 0.205437
v -1.761495 -0.251608 0.145266
v -1.761495 -0.280633 0.075195
v -1.761495 -0.290532 0.000000
v -1.761495 -0.280633 -0.075195
v -1.761495 -0.251608 -0.145266
v -1.761495 -0.205437 -0.205437
v -1.761495 -0.145266 -0.251608
v -1.761495 -0.075195 -0.280633
v -1.790252 0.000000 -0.290532
v -1.790252 0.075195 -0.280633
v -1.790252 0.145266 -0.251608
v -1.790252 0.205437 -0.205437
v -1.790252 0.251608 -0.145266
v -1.790252 0.280633 -0.075195
v -1.790252 0.290532 0.000000
v -1.790252 0.280633 0.075195
v -1.790252 0.251608 0.145266
v -1.790252 0.205437 0.205437
v -1.790252 0.145266 0.251608
v -1.790252 0.075195 0.280633
v -1.790252 0.000000 0.290532
v -1.790252 -0.075195 0.280633
v -1.790252 -0.145266 0.251608
v -1.790252 -0.205437 0.205437
v -1.790252 -0.251608 0.145266
v -1.790252 -0.280633 0.075195
v -1.790252 -0.290532 0.000000
v -1.790252 -0.280633 -0.075195
v -1.790252 -0.251608 -0.145266
v -1.790252 -0.205437 -0.205437
v -1.790252 -0.145266 -0.251608
v -1.790252 -0.075195 -0.280633
v -1.775873 0.284566 0.076249
v -1.775873 0.255135 0.147302
v -1.775873 -0.147302 -0.255135
v -1.775873 -0.076249 -0.284566
v -1.775873 0.000000 -0.294605
v -1.775873 0.076249 -0.284566
v -1.775873 -0.208317 0.208317
v -1.775874 -0.255135 0.147302
v -1.775873 0.208317 0.208317
v -1.775873 0.147302 -0.255135
v -1.775874 -0.284566 0.076249
v -1.775873 0.147302 0.255135
v -1.775873 0.208317 -0.208317
v -1.775874 -0.294604 0.000000
v -1.775873 0.076249 0.284566
v -1.775873 0.255135 -0.147302
v -1.775874 -0.284566 -0.076249
v -1.775873 0.000000 0.294605
v -1.775873 0.284566 -0.076249
v -1.775874 -0.255135 -0.147302
v -1.775873 -0.076249 0.284566
v -1.775873 0.294605 0.000000
v -1.775873 -0.208317 -0.208317
v -1.775873 -0.147302 0.255135
vn -1.0000 -0.0000 -0.0000
vn -0.0000 0.3827 0.9239
vn -0.0000 0.7071 0.7071
vn -0.0000 -0.3827 -0.9239
vn -0.0000 -0.7071 -0.7071
vn -0.0000 -0.0000 1.0000
vn -0.0000 -0.0000 -1.0000
vn -0.0000 -0.3827 0.9239
vn -0.0000 0.7071 -0.7071
vn -0.0000 0.3827 -0.9239
vn -0.0000 -0.7071 0.7071
vn -0.0000 0.9239 -0.3827
vn -0.0000 -0.9239 0.3827
vn -0.0000 1.0000 -0.0000
vn -0.0000 -1.0000 -0.0000
vn -0.0000 0.9239 0.3827
vn -0.0000 -0.9239 -0.3827
vn -0.0000 0.9659 0.2588
vn -0.0000 0.8660 0.5000
vn 0.2725 0.8333 0.4811
vn 0.2725 0.9294 0.2490
vn -0.0000 -0.5000 -0.8660
vn -0.0000 -0.2588 -0.9659
vn 0.2725 -0.2490 -0.9294
vn 0.2725 -0.4811 -0.8333
vn -0.0000 0.2588 -0.9659
vn 0.2725 0.2490 -0.9294
vn 0.2725 -0.0000 -0.9622
vn -0.0000 -0.8660 0.5000
vn 0.2725 -0.8333 0.4811
vn 0.2725 -0.6803 0.6803
vn 0.2725 0.6803 0.6803
vn -0.0000 0.5000 -0.8660
vn 0.2725 0.4811 -0.8333
vn -0.0000 -0.9659 0.2588
vn 0.2725 -0.9294 0.2490
vn -0.0000 0.5000 0.8660
vn 0.2725 0.4811 0.8333
vn 0.2725 0.6803 -0.6803
vn 0.2725 -0.9622 -0.0000
vn -0.0000 0.2588 0.9659
vn 0.2725 0.2490 0.9294
vn -0.0000 0.8660 -0.5000
vn 0.2725 0.8333 -0.4811
vn -0.0000 -0.9659 -0.2588
vn 0.2725 -0.9294 -0.2490
vn 0.2725 -0.0000 0.9622
vn -0.0000 0.9659 -0.2588
vn 0.2725 0.9294 -0.2490
vn -0.0000 -0.8660 -0.5000
vn 0.2725 -0.8333 -0.4811
vn -0.0000 -0.2588 0.9659
vn 0.2725 -0.2490 0.9294
vn 0.2725 0.9622 -0.0000
vn 0.2725 -0.6803 -0.6803
vn -0.0000 -0.5000 0.8660
vn 0.2725 -0.4811 0.8333
vn 1.0000 -0.0000 -0.0000
vn -0.2725 -0.4811 0.8333
vn -0.2725 -0.6803 0.6803
vn -0.2725 -0.6803 -0.6803
vn -0.2725 -0.4811 -0.8333
vn -0.2725 0.9622 -0.0000
vn -0.2725 0.9294 0.2490
vn -0.2725 -0.2490 0.9294
vn -0.2725 -0.8333 -0.4811
vn -0.2725 0.9294 -0.2490
vn -0.2725 -0.0000 0.9622
vn -0.2725 -0.9294 -0.2490
vn -0.2725 0.8333 -0.4811
vn -0.2725 0.2490 0.9294
vn -0.2725 -0.9622 -0.0000
vn -0.2725 0.6803 -0.6803
vn -0.2725 0.4811 0.8333
vn -0.2725 -0.9294 0.2490
vn -0.2725 0.4811 -0.8333
vn -0.2725 0.6803 0.6803
vn -0.2725 -0.8333 0.4811
vn -0.2725 0.2490 -0.9294
vn -0.2725 -0.2490 -0.9294
vn -0.2725 -0.0000 -0.9622
vn -0.2725 0.8333 0.4811
vt 0.742706 0.862466
vt 0.770459 0.886285
vt 0.707846 0.949334
vt 0.925065 0.659888
vt 0.862451 0.722938
vt 0.883907 0.636709
vt 0.827695 0.711553
vt 0.791228 0.714336
vt 0.790919 0.625478
vt 0.674090 0.916293
vt 0.650035 0.875640
vt 0.961178 0.913221
vt 0.874310 0.878361
vt 0.898129 0.850607
vt 0.805216 0.897669
vt 0.841683 0.894887
vt 0.841992 0.983744
vt 0.982875 0.733582
vt 0.995588 0.779075
vt 0.906731 0.779384
vt 0.958821 0.692930
vt 0.890205 0.746757
vt 0.996094 0.826308
vt 0.984357 0.872063
vt 0.909513 0.815851
vt 0.745426 0.638191
vt 0.347838 0.406354
vt 0.004099 0.406306
vt 0.004076 0.369750
vt 0.347818 0.369763
vt 0.749004 0.972513
vt 0.648553 0.737160
vt 0.671732 0.696002
vt 0.734782 0.758615
vt 0.723397 0.793372
vt 0.704774 0.662246
vt 0.758601 0.730862
vt 0.637322 0.830147
vt 0.636817 0.782914
vt 0.726180 0.829839
vt 0.887484 0.971031
vt 0.794758 0.984250
vt 0.838152 0.624973
vt 0.347662 0.113810
vt 0.003908 0.113675
vt 0.003919 0.077081
vt 0.347703 0.077258
vt 0.347847 0.442948
vt 0.004106 0.442858
vt 0.347647 0.150361
vt 0.003906 0.150271
vt 0.347846 0.479544
vt 0.004091 0.479409
vt 0.347677 0.223470
vt 0.003936 0.223456
vt 0.003915 0.186866
vt 0.347654 0.186913
vt 0.347834 0.516138
vt 0.004051 0.515961
vt 0.347711 0.260032
vt 0.003967 0.260041
vt 0.347808 0.552729
vt 0.003991 0.552517
vt 0.347750 0.296601
vt 0.004004 0.296618
vt 0.347683 0.589313
vt 0.003906 0.589080
vt 0.347787 0.333178
vt 0.004042 0.333188
vt 0.347763 0.040702
vt 0.003946 0.040490
vt 0.004071 0.003906
vt 0.347847 0.004139
vt 0.818020 0.574701
vt 0.818020 0.527135
vt 0.827321 0.527135
vt 0.827321 0.574701
vt 0.763324 0.432003
vt 0.763324 0.384436
vt 0.772625 0.384436
vt 0.772625 0.432003
vt 0.763324 0.336870
vt 0.763324 0.289304
vt 0.772625 0.289304
vt 0.772625 0.336870
vt 0.818020 0.194171
vt 0.818020 0.146605
vt 0.827321 0.146605
vt 0.827321 0.194171
vt 0.818020 0.479569
vt 0.827321 0.479569
vt 0.763324 0.241738
vt 0.772625 0.241738
vt 0.818020 0.099039
vt 0.827321 0.099039
vt 0.818020 0.432003
vt 0.827321 0.432003
vt 0.763324 0.194171
vt 0.772625 0.194171
vt 0.818020 0.051473
vt 0.827321 0.051473
vt 0.818020 0.384436
vt 0.827321 0.384436
vt 0.763324 0.146605
vt 0.772625 0.146605
vt 0.818020 0.003906
vt 0.827321 0.003906
vt 0.818020 0.336870
vt 0.827321 0.336870
vt 0.763324 0.099039
vt 0.772625 0.099039
vt 0.763324 0.574701
vt 0.763324 0.527135
vt 0.772625 0.527135
vt 0.772625 0.574701
vt 0.818020 0.289304
vt 0.827321 0.289304
vt 0.763324 0.051473
vt 0.772625 0.051473
vt 0.763324 0.479569
vt 0.772625 0.479569
vt 0.818020 0.241738
vt 0.827321 0.241738
vt 0.763324 0.003906
vt 0.772625 0.003906
vt 0.489636 0.010072
vt 0.583299 0.010072
vt 0.626939 0.028148
vt 0.445995 0.028148
vt 0.536467 0.003906
vt 0.664414 0.056904
vt 0.408521 0.056904
vt 0.693169 0.094378
vt 0.379765 0.094378
vt 0.711246 0.138018
vt 0.361689 0.138018
vt 0.717411 0.184850
vt 0.355523 0.184850
vt 0.711246 0.231682
vt 0.361689 0.231682
vt 0.693169 0.275322
vt 0.379765 0.275322
vt 0.664414 0.312797
vt 0.408521 0.312797
vt 0.626939 0.341552
vt 0.445995 0.341552
vt 0.583299 0.359629
vt 0.489636 0.359629
vt 0.536467 0.365794
vt 0.928137 0.946977
vt 0.808719 0.241738
vt 0.808719 0.194171
vt 0.754023 0.479569
vt 0.754023 0.432003
vt 0.754023 0.051473
vt 0.754023 0.003906
vt 0.808719 0.289304
vt 0.754023 0.527135
vt 0.754023 0.099039
vt 0.808719 0.336870
vt 0.754023 0.574701
vt 0.754023 0.146605
vt 0.808719 0.384436
vt 0.808719 0.051473
vt 0.808719 0.003906
vt 0.754023 0.194171
vt 0.808719 0.432003
vt 0.808719 0.099039
vt 0.754023 0.241738
vt 0.808719 0.479569
vt 0.808719 0.146605
vt 0.754023 0.289304
vt 0.754023 0.384436
vt 0.754023 0.336870
vt 0.808719 0.527135
vt 0.808719 0.574701
vt 0.110047 0.718625
vt 0.075463 0.631647
vt 0.137876 0.694895
vt 0.291762 0.921781
vt 0.250531 0.944829
vt 0.229349 0.858532
vt 0.194557 0.869807
vt 0.157508 0.955765
vt 0.158098 0.866909
vt 0.017419 0.705157
vt 0.041602 0.664581
vt 0.328680 0.668564
vt 0.265432 0.730977
vt 0.241701 0.703148
vt 0.172668 0.683620
vt 0.209717 0.597663
vt 0.209127 0.686518
vt 0.349806 0.848271
vt 0.273808 0.802228
vt 0.362664 0.802818
vt 0.325623 0.888846
vt 0.257178 0.834802
vt 0.363319 0.755587
vt 0.276706 0.765769
vt 0.351728 0.709795
vt 0.112056 0.942907
vt 0.116695 0.608599
vt 0.015498 0.843632
vt 0.101794 0.822450
vt 0.038546 0.884863
vt 0.090519 0.787658
vt 0.125524 0.850279
vt 0.071480 0.918724
vt 0.004562 0.750609
vt 0.003906 0.797840
vt 0.093417 0.751199
vt 0.255170 0.610520
vt 0.162486 0.597007
vt 0.204739 0.956420
vt 0.790672 0.574701
vt 0.781371 0.574701
vt 0.781371 0.527135
vt 0.790672 0.527135
vt 0.735976 0.432003
vt 0.726675 0.432003
vt 0.726675 0.384436
vt 0.735976 0.384436
vt 0.735976 0.336870
vt 0.726675 0.336870
vt 0.726675 0.289304
vt 0.735976 0.289304
vt 0.790672 0.194171
vt 0.781371 0.194171
vt 0.781371 0.146605
vt 0.790672 0.146605
vt 0.781371 0.479569
vt 0.790672 0.479569
vt 0.726675 0.241738
vt 0.735976 0.241738
vt 0.781371 0.099039
vt 0.790672 0.099039
vt 0.781371 0.432003
vt 0.790672 0.432003
vt 0.726675 0.194171
vt 0.735976 0.194171
vt 0.781371 0.051473
vt 0.790672 0.051473
vt 0.781371 0.384436
vt 0.790672 0.384436
vt 0.726675 0.146605
vt 0.735976 0.146605
vt 0.781371 0.003906
vt 0.790672 0.003906
vt 0.781371 0.336870
vt 0.790672 0.336870
vt 0.726675 0.099039
vt 0.735976 0.099039
vt 0.735976 0.574701
vt 0.726675 0.574701
vt 0.726675 0.527135
vt 0.735976 0.527135
vt 0.781371 0.289304
vt 0.790672 0.289304
vt 0.726675 0.051473
vt 0.735976 0.051473
vt 0.726675 0.479569
vt 0.735976 0.479569
vt 0.781371 0.241738
vt 0.790672 0.241738
vt 0.726675 0.003906
vt 0.735976 0.003906
vt 0.489636 0.730804
vt 0.445995 0.712728
vt 0.626939 0.712728
vt 0.583299 0.730804
vt 0.536467 0.736970
vt 0.408521 0.683973
vt 0.664414 0.683973
vt 0.379765 0.646498
vt 0.693169 0.646498
vt 0.361689 0.602858
vt 0.711246 0.602858
vt 0.355523 0.556026
vt 0.717411 0.556026
vt 0.711246 0.509194
vt 0.361689 0.509194
vt 0.693169 0.465554
vt 0.379765 0.465554
vt 0.664414 0.428079
vt 0.408521 0.428079
vt 0.626939 0.399324
vt 0.445995 0.399324
vt 0.583299 0.381247
vt 0.489636 0.381247
vt 0.536467 0.375082
vt 0.295746 0.634703
vt 0.799973 0.241738
vt 0.799973 0.194171
vt 0.745277 0.479569
vt 0.745277 0.432003
vt 0.745277 0.051473
vt 0.745277 0.003906
vt 0.799973 0.289304
vt 0.745277 0.527135
vt 0.745277 0.099039
vt 0.799973 0.336870
vt 0.745277 0.574701
vt 0.745277 0.146605
vt 0.799973 0.384436
vt 0.799973 0.051473
vt 0.799973 0.003906
vt 0.745277 0.194171
vt 0.799973 0.432003
vt 0.799973 0.099039
vt 0.745277 0.241738
vt 0.799973 0.479569
vt 0.799973 0.146605
vt 0.745277 0.289304
vt 0.745277 0.384436
vt 0.745277 0.336870
vt 0.799973 0.527135
vt 0.799973 0.574701
s 1
f 7/1/1 8/2/1 27/3/1
f 39/4/1 16/5/1 40/6/1
f 1/7/1 2/8/1 18/9/1
f 7/1/1 27/3/1 26/10/1 25/11/1
f 33/12/1 11/13/1 12/14/1
f 9/15/1 10/16/1 30/17/1
f 37/18/1 36/19/1 14/20/1
f 38/21/1 37/18/1 15/22/1 39/4/1
f 35/23/1 34/24/1 13/25/1 36/19/1
f 2/8/1 19/26/1 18/9/1
f 96/27/2 8/28/2 7/29/3 95/30/3
f 8/2/1 9/15/1 28/31/1
f 22/32/1 21/33/1 4/34/1
f 15/22/1 37/18/1 14/20/1
f 4/34/1 5/35/1 22/32/1
f 21/33/1 20/36/1 19/26/1 3/37/1
f 15/22/1 16/5/1 39/4/1
f 24/38/1 23/39/1 22/32/1 5/35/1
f 24/38/1 5/35/1 6/40/1
f 12/14/1 13/25/1 34/24/1
f 7/1/1 25/11/1 6/40/1
f 34/24/1 33/12/1 12/14/1
f 10/16/1 31/41/1 30/17/1
f 25/11/1 24/38/1 6/40/1
f 13/25/1 14/20/1 36/19/1
f 28/31/1 9/15/1 30/17/1 29/42/1
f 16/5/1 1/7/1 40/6/1
f 10/16/1 11/13/1 31/41/1
f 1/7/1 18/9/1 17/43/1 40/6/1
f 21/33/1 3/37/1 4/34/1
f 2/8/1 3/37/1 19/26/1
f 27/3/1 8/2/1 28/31/1
f 104/44/4 16/45/4 15/46/5 103/47/5
f 97/48/6 9/49/6 8/28/2 96/27/2
f 89/50/7 1/51/7 16/45/4 104/44/4
f 98/52/8 10/53/8 9/49/6 97/48/6
f 91/54/9 3/55/9 2/56/10 90/57/10
f 99/58/11 11/59/11 10/53/8 98/52/8
f 92/60/12 4/61/12 3/55/9 91/54/9
f 100/62/13 12/63/13 11/59/11 99/58/11
f 93/64/14 5/65/14 4/61/12 92/60/12
f 101/66/15 13/67/15 12/63/13 100/62/13
f 94/68/16 6/69/16 5/65/14 93/64/14
f 102/70/17 14/71/17 13/72/15 101/73/15
f 95/30/3 7/29/3 6/69/16 94/68/16
f 103/47/5 15/46/5 14/71/17 102/70/17
f 65/74/18 66/75/19 49/76/20 48/77/21
f 67/78/22 68/79/23 64/80/24 63/81/25
f 69/82/7 70/83/26 42/84/27 41/85/28
f 71/86/11 72/87/29 57/88/30 56/89/31
f 66/75/19 73/90/3 50/91/32 49/76/20
f 68/79/23 69/82/7 41/85/28 64/80/24
f 70/83/26 74/92/33 43/93/34 42/84/27
f 72/87/29 75/94/35 58/95/36 57/88/30
f 73/90/3 76/96/37 51/97/38 50/91/32
f 74/92/33 77/98/9 44/99/39 43/93/34
f 75/94/35 78/100/15 59/101/40 58/95/36
f 76/96/37 79/102/41 52/103/42 51/97/38
f 77/98/9 80/104/43 45/105/44 44/99/39
f 78/100/15 81/106/45 60/107/46 59/101/40
f 79/102/41 82/108/6 53/109/47 52/103/42
f 80/104/43 83/110/48 46/111/49 45/105/44
f 81/112/45 84/113/50 61/114/51 60/115/46
f 82/108/6 85/116/52 54/117/53 53/109/47
f 83/110/48 86/118/14 47/119/54 46/111/49
f 84/113/50 87/120/5 62/121/55 61/114/51
f 85/116/52 88/122/56 55/123/57 54/117/53
f 86/118/14 65/124/18 48/125/21 47/119/54
f 87/120/5 67/78/22 63/81/25 62/121/55
f 88/122/56 71/86/11 56/89/31 55/123/57
f 46/126/58 48/127/58 49/128/58 45/129/58
f 47/130/58 48/127/58 46/126/58
f 45/129/58 49/128/58 50/131/58 44/132/58
f 44/132/58 50/131/58 51/133/58 43/134/58
f 43/134/58 51/133/58 52/135/58 42/136/58
f 42/136/58 52/135/58 53/137/58 41/138/58
f 54/139/58 64/140/58 41/138/58 53/137/58
f 55/141/58 63/142/58 64/140/58 54/139/58
f 56/143/58 62/144/58 63/142/58 55/141/58
f 57/145/58 61/146/58 62/144/58 56/143/58
f 58/147/58 60/148/58 61/146/58 57/145/58
f 59/149/58 60/148/58 58/147/58
f 33/12/1 32/150/1 31/41/1 11/13/1
f 31/151/59 32/152/60 71/86/11 88/122/56
f 38/153/61 39/154/62 67/78/22 87/120/5
f 23/155/63 24/156/64 65/124/18 86/118/14
f 30/157/65 31/151/59 88/122/56 85/116/52
f 37/158/66 38/153/61 87/120/5 84/113/50
f 22/159/67 23/155/63 86/118/14 83/110/48
f 29/160/68 30/157/65 85/116/52 82/108/6
f 36/161/69 37/158/66 84/113/50 81/112/45
f 21/162/70 22/159/67 83/110/48 80/104/43
f 28/163/71 29/160/68 82/108/6 79/102/41
f 35/164/72 36/165/69 81/106/45 78/100/15
f 20/166/73 21/162/70 80/104/43 77/98/9
f 27/167/74 28/163/71 79/102/41 76/96/37
f 34/168/75 35/164/72 78/100/15 75/94/35
f 19/169/76 20/166/73 77/98/9 74/92/33
f 26/170/77 27/167/74 76/96/37 73/90/3
f 33/171/78 34/168/75 75/94/35 72/87/29
f 18/172/79 19/169/76 74/92/33 70/83/26
f 40/173/80 17/174/81 69/82/7 68/79/23
f 25/175/82 26/170/77 73/90/3 66/75/19
f 32/152/60 33/171/78 72/87/29 71/86/11
f 17/174/81 18/172/79 70/83/26 69/82/7
f 39/154/62 40/173/80 68/79/23 67/78/22
f 24/176/64 25/175/82 66/75/19 65/74/18
f 95/177/58 115/178/58 96/179/58
f 127/180/58 128/181/58 104/182/58
f 89/183/58 106/184/58 90/185/58
f 95/177/58 113/186/58 114/187/58 115/178/58
f 121/188/58 100/189/58 99/190/58
f 97/191/58 118/192/58 98/193/58
f 125/194/58 102/195/58 124/196/58
f 126/197/58 127/180/58 103/198/58 125/194/58
f 123/199/58 124/196/58 101/200/58 122/201/58
f 90/185/58 106/184/58 107/202/58
f 96/179/58 116/203/58 97/191/58
f 110/204/58 92/205/58 109/206/58
f 103/198/58 102/195/58 125/194/58
f 92/205/58 110/204/58 93/207/58
f 109/206/58 91/208/58 107/202/58 108/209/58
f 103/198/58 127/180/58 104/182/58
f 112/210/58 93/207/58 110/204/58 111/211/58
f 112/210/58 94/212/58 93/207/58
f 100/189/58 122/201/58 101/200/58
f 95/177/58 94/212/58 113/186/58
f 122/201/58 100/189/58 121/188/58
f 98/193/58 118/192/58 119/213/58
f 113/186/58 94/212/58 112/210/58
f 101/200/58 124/196/58 102/195/58
f 116/203/58 117/214/58 118/192/58 97/191/58
f 104/182/58 128/181/58 89/183/58
f 98/193/58 119/213/58 99/190/58
f 89/183/58 128/181/58 105/215/58 106/184/58
f 109/206/58 92/205/58 91/208/58
f 90/185/58 107/202/58 91/208/58
f 115/178/58 116/203/58 96/179/58
f 153/216/18 136/217/64 137/218/82 154/219/19
f 155/220/22 151/221/62 152/222/80 156/223/23
f 157/224/7 129/225/81 130/226/79 158/227/26
f 159/228/11 144/229/60 145/230/78 160/231/29
f 154/219/19 137/218/82 138/232/77 161/233/3
f 156/223/23 152/222/80 129/225/81 157/224/7
f 158/227/26 130/226/79 131/234/76 162/235/33
f 160/231/29 145/230/78 146/236/75 163/237/35
f 161/233/3 138/232/77 139/238/74 164/239/37
f 162/235/33 131/234/76 132/240/73 165/241/9
f 163/237/35 146/236/75 147/242/72 166/243/15
f 164/239/37 139/238/74 140/244/71 167/245/41
f 165/241/9 132/240/73 133/246/70 168/247/43
f 166/243/15 147/242/72 148/248/69 169/249/45
f 167/245/41 140/244/71 141/250/68 170/251/6
f 168/247/43 133/246/70 134/252/67 171/253/48
f 169/254/45 148/255/69 149/256/66 172/257/50
f 170/251/6 141/250/68 142/258/65 173/259/52
f 171/253/48 134/252/67 135/260/63 174/261/14
f 172/257/50 149/256/66 150/262/61 175/263/5
f 173/259/52 142/258/65 143/264/59 176/265/56
f 174/261/14 135/260/63 136/266/64 153/267/18
f 175/263/5 150/262/61 151/221/62 155/220/22
f 176/265/56 143/264/59 144/229/60 159/228/11
f 134/268/1 133/269/1 137/270/1 136/271/1
f 135/272/1 134/268/1 136/271/1
f 133/269/1 132/273/1 138/274/1 137/270/1
f 132/273/1 131/275/1 139/276/1 138/274/1
f 131/275/1 130/277/1 140/278/1 139/276/1
f 130/277/1 129/279/1 141/280/1 140/278/1
f 142/281/1 141/280/1 129/279/1 152/282/1
f 143/283/1 142/281/1 152/282/1 151/284/1
f 144/285/1 143/283/1 151/284/1 150/286/1
f 145/287/1 144/285/1 150/286/1 149/288/1
f 146/289/1 145/287/1 149/288/1 148/290/1
f 147/291/1 146/289/1 148/290/1
f 121/188/58 99/190/58 119/213/58 120/292/58
f 119/293/57 176/265/56 159/228/11 120/294/31
f 126/295/55 175/263/5 155/220/22 127/296/25
f 111/297/54 174/261/14 153/267/18 112/298/21
f 118/299/53 173/259/52 176/265/56 119/293/57
f 125/300/51 172/257/50 175/263/5 126/295/55
f 110/301/49 171/253/48 174/261/14 111/297/54
f 117/302/47 170/251/6 173/259/52 118/299/53
f 124/303/46 169/254/45 172/257/50 125/300/51
f 109/304/44 168/247/43 171/253/48 110/301/49
f 116/305/42 167/245/41 170/251/6 117/302/47
f 123/306/40 166/243/15 169/249/45 124/307/46
f 108/308/39 165/241/9 168/247/43 109/304/44
f 115/309/38 164/239/37 167/245/41 116/305/42
f 122/310/36 163/237/35 166/243/15 123/306/40
f 107/311/34 162/235/33 165/241/9 108/308/39
f 114/312/32 161/233/3 164/239/37 115/309/38
f 121/313/30 160/231/29 163/237/35 122/310/36
f 106/314/27 158/227/26 162/235/33 107/311/34
f 128/315/24 156/223/23 157/224/7 105/316/28
f 113/317/20 154/219/19 161/233/3 114/312/32
f 120/294/31 159/228/11 160/231/29 121/313/30
f 105/316/28 157/224/7 158/227/26 106/314/27
f 127/296/25 155/220/22 156/223/23 128/315/24
f 112/318/21 153/216/18 154/219/19 113/317/20
f 90/57/10 2/56/10 1/51/7 89/50/7
